<mxfile host="app.diagrams.net" agent="Mozilla/5.0 (Windows NT 10.0; Win64; x64) AppleWebKit/537.36 (KHTML, like Gecko) Chrome/133.0.0.0 Safari/537.36" version="26.0.16">
  <diagram name="Page-1" id="78Awk6SsGqFOrTcoLzFU">
    <mxGraphModel dx="2336" dy="1994" grid="1" gridSize="10" guides="1" tooltips="1" connect="1" arrows="1" fold="1" page="1" pageScale="1" pageWidth="827" pageHeight="1169" math="0" shadow="0">
      <root>
        <mxCell id="0" />
        <mxCell id="1" parent="0" />
        <mxCell id="5-b9ar80urW7ufmgR8nd-1" value="" style="html=1;overflow=block;blockSpacing=1;whiteSpace=wrap;container=1;pointerEvents=0;collapsible=0;recursiveResize=0;fontSize=40;spacing=0;verticalAlign=middle;strokeColor=#3a414a;strokeOpacity=100;fillOpacity=0;rounded=1;absoluteArcSize=1;arcSize=9;fillColor=#000000;strokeWidth=3.8;lucidId=~mSAlCwzj~NE;" vertex="1" parent="1">
          <mxGeometry x="135" y="-450" width="1320" height="1320" as="geometry" />
        </mxCell>
        <mxCell id="5-b9ar80urW7ufmgR8nd-42" value="&lt;font style=&quot;font-size: 48px;&quot;&gt;Plateforme Vibe&lt;/font&gt;" style="text;html=1;align=center;verticalAlign=middle;resizable=0;points=[];autosize=1;strokeColor=none;fillColor=none;" vertex="1" parent="5-b9ar80urW7ufmgR8nd-1">
          <mxGeometry x="450" y="6" width="360" height="70" as="geometry" />
        </mxCell>
        <mxCell id="5-b9ar80urW7ufmgR8nd-43" value="S&#39;inscrire via Google" style="html=1;overflow=block;blockSpacing=1;whiteSpace=wrap;ellipse;fontSize=23.3;fontStyle=1;align=center;spacing=3.8;verticalAlign=middle;strokeColor=#3a414a;strokeOpacity=100;fillOpacity=0;rounded=1;absoluteArcSize=1;arcSize=9;fillColor=#000000;strokeWidth=1.5;lucidId=~mSAtD9ScKk.;" vertex="1" parent="5-b9ar80urW7ufmgR8nd-1">
          <mxGeometry x="91" y="210" width="188" height="105" as="geometry" />
        </mxCell>
        <mxCell id="5-b9ar80urW7ufmgR8nd-44" value="S&#39;inscrire via Facebook" style="html=1;overflow=block;blockSpacing=1;whiteSpace=wrap;ellipse;fontSize=23.3;fontStyle=1;align=center;spacing=3.8;verticalAlign=middle;strokeColor=#3a414a;strokeOpacity=100;fillOpacity=0;rounded=1;absoluteArcSize=1;arcSize=9;fillColor=#000000;strokeWidth=1.5;lucidId=~mSAtD9ScKk.;" vertex="1" parent="5-b9ar80urW7ufmgR8nd-1">
          <mxGeometry x="285" y="210" width="188" height="105" as="geometry" />
        </mxCell>
        <mxCell id="5-b9ar80urW7ufmgR8nd-15" value="Consulter les réservations" style="html=1;overflow=block;blockSpacing=1;whiteSpace=wrap;ellipse;fontSize=23.3;fontStyle=1;align=center;spacing=3.8;strokeColor=#3a414a;strokeOpacity=100;fillOpacity=0;rounded=1;absoluteArcSize=1;arcSize=9;fillColor=#000000;strokeWidth=1.5;lucidId=~mSA3CYrI3wj;" vertex="1" parent="5-b9ar80urW7ufmgR8nd-1">
          <mxGeometry x="131" y="810" width="319" height="77" as="geometry" />
        </mxCell>
        <mxCell id="5-b9ar80urW7ufmgR8nd-17" value="Messagerie Instantanée" style="html=1;overflow=block;blockSpacing=1;whiteSpace=wrap;ellipse;fontSize=23.3;fontStyle=1;align=center;spacing=3.8;strokeColor=#3a414a;strokeOpacity=100;fillOpacity=0;rounded=1;absoluteArcSize=1;arcSize=9;fillColor=#000000;strokeWidth=1.5;lucidId=gsSAlLzOPal5;" vertex="1" parent="5-b9ar80urW7ufmgR8nd-1">
          <mxGeometry x="116" y="700" width="334" height="105" as="geometry" />
        </mxCell>
        <mxCell id="5-b9ar80urW7ufmgR8nd-46" value="Accepter une demande d&#39;ami" style="html=1;overflow=block;blockSpacing=1;whiteSpace=wrap;ellipse;fontSize=23.3;fontStyle=1;align=center;spacing=3.8;strokeColor=#3a414a;strokeOpacity=100;fillOpacity=0;rounded=1;absoluteArcSize=1;arcSize=9;fillColor=#000000;strokeWidth=1.5;lucidId=~mSAoy~qvZ23;" vertex="1" parent="5-b9ar80urW7ufmgR8nd-1">
          <mxGeometry x="25" y="450" width="209" height="105" as="geometry" />
        </mxCell>
        <mxCell id="5-b9ar80urW7ufmgR8nd-56" value="Refuser une demande d&#39;ami" style="html=1;overflow=block;blockSpacing=1;whiteSpace=wrap;ellipse;fontSize=23.3;fontStyle=1;align=center;spacing=3.8;strokeColor=#3a414a;strokeOpacity=100;fillOpacity=0;rounded=1;absoluteArcSize=1;arcSize=9;fillColor=#000000;strokeWidth=1.5;lucidId=~mSAoy~qvZ23;" vertex="1" parent="5-b9ar80urW7ufmgR8nd-1">
          <mxGeometry x="241" y="450" width="209" height="105" as="geometry" />
        </mxCell>
        <mxCell id="5-b9ar80urW7ufmgR8nd-57" value="Ajouter un ami" style="html=1;overflow=block;blockSpacing=1;whiteSpace=wrap;ellipse;fontSize=23.3;fontStyle=1;align=center;spacing=3.8;strokeColor=#3a414a;strokeOpacity=100;fillOpacity=0;rounded=1;absoluteArcSize=1;arcSize=9;fillColor=#000000;strokeWidth=1.5;lucidId=~mSAoy~qvZ23;" vertex="1" parent="5-b9ar80urW7ufmgR8nd-1">
          <mxGeometry x="455" y="450" width="135" height="105" as="geometry" />
        </mxCell>
        <mxCell id="5-b9ar80urW7ufmgR8nd-16" value="Annuler une réservation" style="html=1;overflow=block;blockSpacing=1;whiteSpace=wrap;ellipse;fontSize=23.3;fontStyle=1;align=center;spacing=3.8;strokeColor=#3a414a;strokeOpacity=100;fillOpacity=0;rounded=1;absoluteArcSize=1;arcSize=9;fillColor=#000000;strokeWidth=1.5;lucidId=~mSAQdyymC9N;" vertex="1" parent="5-b9ar80urW7ufmgR8nd-1">
          <mxGeometry x="735" y="900" width="319" height="77" as="geometry" />
        </mxCell>
        <mxCell id="5-b9ar80urW7ufmgR8nd-22" value="" style="html=1;jettySize=18;whiteSpace=wrap;fontSize=13;strokeColor=#3a414a;strokeOpacity=100;dashed=1;fixDash=1;strokeWidth=2.3;rounded=0;endArrow=none;exitX=1.002;exitY=0.5;exitPerimeter=0;entryX=-0.002;entryY=0.5;entryPerimeter=0;lucidId=cDSAiPWHM.t_;" edge="1" parent="5-b9ar80urW7ufmgR8nd-1" source="5-b9ar80urW7ufmgR8nd-17" target="5-b9ar80urW7ufmgR8nd-16">
          <mxGeometry width="100" height="100" relative="1" as="geometry">
            <Array as="points" />
          </mxGeometry>
        </mxCell>
        <mxCell id="5-b9ar80urW7ufmgR8nd-14" value="Générer des rapports" style="html=1;overflow=block;blockSpacing=1;whiteSpace=wrap;ellipse;fontSize=23.3;fontStyle=1;align=center;spacing=3.8;strokeColor=#3a414a;strokeOpacity=100;fillOpacity=0;rounded=1;absoluteArcSize=1;arcSize=9;fillColor=#000000;strokeWidth=1.5;lucidId=~mSAyC2ZrvZS;" vertex="1" parent="5-b9ar80urW7ufmgR8nd-1">
          <mxGeometry x="151" y="1210" width="255" height="105" as="geometry" />
        </mxCell>
        <mxCell id="5-b9ar80urW7ufmgR8nd-21" value="Impression du rapport" style="html=1;overflow=block;blockSpacing=1;whiteSpace=wrap;ellipse;fontSize=23.3;fontStyle=1;align=center;spacing=3.8;strokeColor=#3a414a;strokeOpacity=100;fillOpacity=0;rounded=1;absoluteArcSize=1;arcSize=9;fillColor=#000000;strokeWidth=1.5;lucidId=pBSA6-z_cCOx;" vertex="1" parent="5-b9ar80urW7ufmgR8nd-1">
          <mxGeometry x="575" y="1210" width="255" height="105" as="geometry" />
        </mxCell>
        <mxCell id="5-b9ar80urW7ufmgR8nd-25" value="" style="html=1;jettySize=18;whiteSpace=wrap;fontSize=13;strokeColor=#3a414a;strokeOpacity=100;dashed=1;fixDash=1;strokeWidth=2.3;rounded=0;endArrow=none;exitX=0.999;exitY=0.562;exitPerimeter=0;entryX=0.001;entryY=0.562;entryPerimeter=0;lucidId=s91G_Mvu-Avs;" edge="1" parent="5-b9ar80urW7ufmgR8nd-1" source="5-b9ar80urW7ufmgR8nd-14" target="5-b9ar80urW7ufmgR8nd-21">
          <mxGeometry width="100" height="100" relative="1" as="geometry">
            <Array as="points" />
          </mxGeometry>
        </mxCell>
        <mxCell id="5-b9ar80urW7ufmgR8nd-10" value="Consulter les statistiques" style="html=1;overflow=block;blockSpacing=1;whiteSpace=wrap;ellipse;fontSize=23.3;fontStyle=1;align=center;spacing=3.8;strokeColor=#3a414a;strokeOpacity=100;fillOpacity=0;rounded=1;absoluteArcSize=1;arcSize=9;fillColor=#000000;strokeWidth=1.5;lucidId=~mSA2vV-JqJf;" vertex="1" parent="5-b9ar80urW7ufmgR8nd-1">
          <mxGeometry x="135" y="1110" width="255" height="105" as="geometry" />
        </mxCell>
        <mxCell id="5-b9ar80urW7ufmgR8nd-13" value="Gérer les menus" style="html=1;overflow=block;blockSpacing=1;whiteSpace=wrap;ellipse;fontSize=23.3;fontStyle=1;align=center;spacing=3.8;strokeColor=#3a414a;strokeOpacity=100;fillOpacity=0;rounded=1;absoluteArcSize=1;arcSize=9;fillColor=#000000;strokeWidth=1.5;lucidId=~mSAFxYGVeUs;" vertex="1" parent="5-b9ar80urW7ufmgR8nd-1">
          <mxGeometry x="135" y="1000" width="255" height="105" as="geometry" />
        </mxCell>
        <mxCell id="5-b9ar80urW7ufmgR8nd-12" value="Gérer les réservations" style="html=1;overflow=block;blockSpacing=1;whiteSpace=wrap;ellipse;fontSize=23.3;fontStyle=1;align=center;spacing=3.8;strokeColor=#3a414a;strokeOpacity=100;fillOpacity=0;rounded=1;absoluteArcSize=1;arcSize=9;fillColor=#000000;strokeWidth=1.5;lucidId=~mSAthVUY_ts;" vertex="1" parent="5-b9ar80urW7ufmgR8nd-1">
          <mxGeometry x="135" y="895" width="304" height="105" as="geometry" />
        </mxCell>
        <mxCell id="5-b9ar80urW7ufmgR8nd-58" value="Ajouter par identifiant" style="html=1;overflow=block;blockSpacing=1;whiteSpace=wrap;ellipse;fontSize=23.3;fontStyle=1;align=center;spacing=3.8;strokeColor=#3a414a;strokeOpacity=100;fillOpacity=0;rounded=1;absoluteArcSize=1;arcSize=9;fillColor=#000000;strokeWidth=1.5;lucidId=~mSAoy~qvZ23;" vertex="1" parent="5-b9ar80urW7ufmgR8nd-1">
          <mxGeometry x="315" y="570" width="135" height="105" as="geometry" />
        </mxCell>
        <mxCell id="5-b9ar80urW7ufmgR8nd-59" value="Ajouter par code QR / lien d&#39;invitation" style="html=1;overflow=block;blockSpacing=1;whiteSpace=wrap;ellipse;fontSize=23.3;fontStyle=1;align=center;spacing=3.8;strokeColor=#3a414a;strokeOpacity=100;fillOpacity=0;rounded=1;absoluteArcSize=1;arcSize=9;fillColor=#000000;strokeWidth=1.5;lucidId=~mSAoy~qvZ23;" vertex="1" parent="5-b9ar80urW7ufmgR8nd-1">
          <mxGeometry x="473" y="570" width="250" height="105" as="geometry" />
        </mxCell>
        <mxCell id="5-b9ar80urW7ufmgR8nd-79" value="Générer QR Code / Lien d&#39;invitation" style="html=1;overflow=block;blockSpacing=1;whiteSpace=wrap;ellipse;fontSize=23.3;fontStyle=1;align=center;spacing=3.8;strokeColor=#3a414a;strokeOpacity=100;fillOpacity=0;rounded=1;absoluteArcSize=1;arcSize=9;fillColor=#000000;strokeWidth=1.5;lucidId=~mSAoy~qvZ23;" vertex="1" parent="5-b9ar80urW7ufmgR8nd-1">
          <mxGeometry x="735" y="420" width="245" height="105" as="geometry" />
        </mxCell>
        <mxCell id="5-b9ar80urW7ufmgR8nd-80" style="rounded=0;orthogonalLoop=1;jettySize=auto;html=1;exitX=1;exitY=0.5;exitDx=0;exitDy=0;dashed=1;dashPattern=8 8;endArrow=classic;endFill=1;" edge="1" parent="5-b9ar80urW7ufmgR8nd-1" source="5-b9ar80urW7ufmgR8nd-57" target="5-b9ar80urW7ufmgR8nd-79">
          <mxGeometry relative="1" as="geometry" />
        </mxCell>
        <mxCell id="5-b9ar80urW7ufmgR8nd-81" value="&amp;lt;&amp;lt;include&amp;gt;&amp;gt;" style="edgeLabel;html=1;align=center;verticalAlign=middle;resizable=0;points=[];" vertex="1" connectable="0" parent="5-b9ar80urW7ufmgR8nd-80">
          <mxGeometry x="-0.0353" y="2" relative="1" as="geometry">
            <mxPoint y="1" as="offset" />
          </mxGeometry>
        </mxCell>
        <mxCell id="5-b9ar80urW7ufmgR8nd-2" value="Client" style="html=1;overflow=block;blockSpacing=1;shape=umlActor;labelPosition=center;verticalLabelPosition=bottom;verticalAlign=top;whiteSpace=nowrap;fontSize=30;spacing=0;strokeColor=#3a414a;strokeOpacity=100;fillOpacity=100;rounded=1;absoluteArcSize=1;arcSize=9;fillColor=#ffffff;strokeWidth=5.3;lucidId=~mSALE40JAP5;" vertex="1" parent="1">
          <mxGeometry x="-132" y="-118" width="105" height="195" as="geometry" />
        </mxCell>
        <mxCell id="5-b9ar80urW7ufmgR8nd-3" value="         Chef(admin)" style="html=1;overflow=block;blockSpacing=1;shape=umlActor;labelPosition=center;verticalLabelPosition=bottom;verticalAlign=top;whiteSpace=nowrap;fontSize=23.3;align=left;spacing=0;strokeColor=#3a414a;strokeOpacity=100;fillOpacity=100;rounded=1;absoluteArcSize=1;arcSize=9;fillColor=#ffffff;strokeWidth=6;lucidId=~mSADb9ZqZSn;" vertex="1" parent="1">
          <mxGeometry x="-117" y="229" width="120" height="180" as="geometry" />
        </mxCell>
        <mxCell id="5-b9ar80urW7ufmgR8nd-4" value="Gestion des Amis" style="html=1;overflow=block;blockSpacing=1;whiteSpace=wrap;ellipse;fontSize=23.3;fontStyle=1;align=center;spacing=3.8;strokeColor=#3a414a;strokeOpacity=100;fillOpacity=0;rounded=1;absoluteArcSize=1;arcSize=9;fillColor=#000000;strokeWidth=1.5;lucidId=~mSAoy~qvZ23;" vertex="1" parent="1">
          <mxGeometry x="251" y="-134" width="334" height="105" as="geometry" />
        </mxCell>
        <mxCell id="5-b9ar80urW7ufmgR8nd-5" value="Se connecter" style="html=1;overflow=block;blockSpacing=1;whiteSpace=wrap;ellipse;fontSize=23.3;fontStyle=1;align=center;spacing=3.8;strokeColor=#3a414a;strokeOpacity=100;fillOpacity=0;rounded=1;absoluteArcSize=1;arcSize=9;fillColor=#000000;strokeWidth=1.5;lucidId=~mSARLXHdl3R;" vertex="1" parent="1">
          <mxGeometry x="1080" y="120" width="319" height="105" as="geometry" />
        </mxCell>
        <mxCell id="5-b9ar80urW7ufmgR8nd-6" value="" style="html=1;jettySize=18;whiteSpace=wrap;fontSize=13;strokeColor=#3a414a;strokeOpacity=100;strokeWidth=2.3;rounded=0;startArrow=none;endArrow=none;exitX=0.525;exitY=0.46;exitPerimeter=0;entryX=-0.002;entryY=0.5;entryPerimeter=0;lucidId=~mSA6748SRNw;" edge="1" parent="1" source="5-b9ar80urW7ufmgR8nd-2" target="5-b9ar80urW7ufmgR8nd-15">
          <mxGeometry width="100" height="100" relative="1" as="geometry">
            <Array as="points" />
          </mxGeometry>
        </mxCell>
        <mxCell id="5-b9ar80urW7ufmgR8nd-7" value="" style="html=1;jettySize=18;whiteSpace=wrap;fontSize=13;strokeColor=#3a414a;strokeOpacity=100;strokeWidth=2.3;rounded=0;startArrow=none;endArrow=none;exitX=0.525;exitY=0.498;exitPerimeter=0;entryX=-0.002;entryY=0.5;entryPerimeter=0;lucidId=~mSAIsDjWqgs;" edge="1" parent="1" source="5-b9ar80urW7ufmgR8nd-2" target="5-b9ar80urW7ufmgR8nd-4">
          <mxGeometry width="100" height="100" relative="1" as="geometry">
            <Array as="points" />
          </mxGeometry>
        </mxCell>
        <mxCell id="5-b9ar80urW7ufmgR8nd-8" value="S&#39;inscrire" style="html=1;overflow=block;blockSpacing=1;whiteSpace=wrap;ellipse;fontSize=23.3;fontStyle=1;align=center;spacing=3.8;verticalAlign=middle;strokeColor=#3a414a;strokeOpacity=100;fillOpacity=0;rounded=1;absoluteArcSize=1;arcSize=9;fillColor=#000000;strokeWidth=1.5;lucidId=~mSAtD9ScKk.;" vertex="1" parent="1">
          <mxGeometry x="266" y="-374" width="319" height="105" as="geometry" />
        </mxCell>
        <mxCell id="5-b9ar80urW7ufmgR8nd-9" value="" style="html=1;jettySize=18;whiteSpace=wrap;fontSize=13;strokeColor=#3a414a;strokeOpacity=100;strokeWidth=2.3;rounded=0;startArrow=none;endArrow=none;exitX=0.525;exitY=0.428;exitPerimeter=0;entryX=-0.002;entryY=0.5;entryPerimeter=0;lucidId=~mSAEQS_zCVy;" edge="1" parent="1" source="5-b9ar80urW7ufmgR8nd-24" target="5-b9ar80urW7ufmgR8nd-8">
          <mxGeometry width="100" height="100" relative="1" as="geometry">
            <Array as="points" />
          </mxGeometry>
        </mxCell>
        <mxCell id="5-b9ar80urW7ufmgR8nd-11" value="" style="html=1;jettySize=18;whiteSpace=wrap;fontSize=13;strokeColor=#3a414a;strokeOpacity=100;strokeWidth=2.3;rounded=0;startArrow=none;endArrow=none;exitX=0.525;exitY=0.489;exitPerimeter=0;entryX=-0.002;entryY=0.5;entryPerimeter=0;lucidId=~mSA2t~4Iq2x;" edge="1" parent="1" source="5-b9ar80urW7ufmgR8nd-3" target="5-b9ar80urW7ufmgR8nd-12">
          <mxGeometry width="100" height="100" relative="1" as="geometry">
            <Array as="points" />
          </mxGeometry>
        </mxCell>
        <mxCell id="5-b9ar80urW7ufmgR8nd-18" value="" style="html=1;jettySize=18;whiteSpace=wrap;fontSize=13;strokeColor=#3a414a;strokeOpacity=100;strokeWidth=2.3;rounded=0;startArrow=none;endArrow=none;exitX=0.525;exitY=0.456;exitPerimeter=0;entryX=0.077;entryY=0.225;entryPerimeter=0;lucidId=XwSAwfboE_tV;" edge="1" parent="1" source="5-b9ar80urW7ufmgR8nd-3" target="5-b9ar80urW7ufmgR8nd-13">
          <mxGeometry width="100" height="100" relative="1" as="geometry">
            <Array as="points" />
          </mxGeometry>
        </mxCell>
        <mxCell id="5-b9ar80urW7ufmgR8nd-19" value="" style="html=1;jettySize=18;whiteSpace=wrap;fontSize=13;strokeColor=#3a414a;strokeOpacity=100;strokeWidth=2.3;rounded=0;startArrow=none;endArrow=none;exitX=0.525;exitY=0.456;exitPerimeter=0;entryX=-0.003;entryY=0.5;entryPerimeter=0;lucidId=6wSAgSvbUr-R;" edge="1" parent="1" source="5-b9ar80urW7ufmgR8nd-3" target="5-b9ar80urW7ufmgR8nd-10">
          <mxGeometry width="100" height="100" relative="1" as="geometry">
            <Array as="points" />
          </mxGeometry>
        </mxCell>
        <mxCell id="5-b9ar80urW7ufmgR8nd-20" value="" style="html=1;jettySize=18;whiteSpace=wrap;fontSize=13;strokeColor=#3a414a;strokeOpacity=100;strokeWidth=2.3;rounded=0;startArrow=none;endArrow=none;exitX=0.525;exitY=0.509;exitPerimeter=0;entryX=-0.003;entryY=0.5;entryPerimeter=0;lucidId=mxSA1QSZ7WK5;" edge="1" parent="1" source="5-b9ar80urW7ufmgR8nd-3" target="5-b9ar80urW7ufmgR8nd-14">
          <mxGeometry width="100" height="100" relative="1" as="geometry">
            <Array as="points" />
          </mxGeometry>
        </mxCell>
        <mxCell id="5-b9ar80urW7ufmgR8nd-23" value="" style="html=1;jettySize=18;whiteSpace=wrap;fontSize=13;strokeColor=#3a414a;strokeOpacity=100;strokeWidth=2.3;rounded=0;startArrow=none;endArrow=none;exitX=0.525;exitY=0.5;exitPerimeter=0;entryX=-0.002;entryY=0.5;entryPerimeter=0;lucidId=1DSAe8HGNbSP;" edge="1" parent="1" source="5-b9ar80urW7ufmgR8nd-2" target="5-b9ar80urW7ufmgR8nd-17">
          <mxGeometry width="100" height="100" relative="1" as="geometry">
            <Array as="points" />
          </mxGeometry>
        </mxCell>
        <mxCell id="5-b9ar80urW7ufmgR8nd-24" value="Visiteur" style="html=1;overflow=block;blockSpacing=1;shape=umlActor;labelPosition=center;verticalLabelPosition=bottom;verticalAlign=top;whiteSpace=nowrap;fontSize=30;spacing=0;strokeColor=#3a414a;strokeOpacity=100;fillOpacity=100;rounded=1;absoluteArcSize=1;arcSize=9;fillColor=#ffffff;strokeWidth=5.3;lucidId=b61GEoWztcs7;" vertex="1" parent="1">
          <mxGeometry x="-132" y="-405" width="105" height="195" as="geometry" />
        </mxCell>
        <mxCell id="5-b9ar80urW7ufmgR8nd-26" value="" style="html=1;jettySize=18;whiteSpace=wrap;fontSize=13;strokeColor=#3a414a;strokeOpacity=100;dashed=1;fixDash=1;dashPattern=16 6;strokeWidth=0.8;rounded=0;startArrow=none;endArrow=block;endFill=1;exitX=1.002;exitY=0.5;exitPerimeter=0;entryX=-0.002;entryY=0.5;entryPerimeter=0;lucidId=F91GQZwb2LO2;" edge="1" parent="1" source="5-b9ar80urW7ufmgR8nd-4" target="5-b9ar80urW7ufmgR8nd-5">
          <mxGeometry width="100" height="100" relative="1" as="geometry">
            <Array as="points" />
          </mxGeometry>
        </mxCell>
        <mxCell id="5-b9ar80urW7ufmgR8nd-28" value="" style="html=1;jettySize=18;whiteSpace=wrap;fontSize=13;strokeColor=#3a414a;strokeOpacity=100;dashed=1;fixDash=1;dashPattern=16 6;strokeWidth=0.8;rounded=0;startArrow=none;endArrow=block;endFill=1;exitX=1.002;exitY=0.5;exitPerimeter=0;entryX=-0.002;entryY=0.5;entryPerimeter=0;lucidId=491GZqH~SsK-;" edge="1" parent="1" source="5-b9ar80urW7ufmgR8nd-15" target="5-b9ar80urW7ufmgR8nd-5">
          <mxGeometry width="100" height="100" relative="1" as="geometry">
            <Array as="points" />
          </mxGeometry>
        </mxCell>
        <mxCell id="5-b9ar80urW7ufmgR8nd-29" value="" style="html=1;jettySize=18;whiteSpace=wrap;fontSize=13;strokeColor=#3a414a;strokeOpacity=100;dashed=1;fixDash=1;dashPattern=16 6;strokeWidth=0.8;rounded=0;startArrow=none;endArrow=block;endFill=1;exitX=1.002;exitY=0.5;exitPerimeter=0;entryX=-0.002;entryY=0.5;entryPerimeter=0;lucidId=c-1GtrJzZYB5;" edge="1" parent="1" source="5-b9ar80urW7ufmgR8nd-12" target="5-b9ar80urW7ufmgR8nd-5">
          <mxGeometry width="100" height="100" relative="1" as="geometry">
            <Array as="points" />
          </mxGeometry>
        </mxCell>
        <mxCell id="5-b9ar80urW7ufmgR8nd-30" value="" style="html=1;jettySize=18;whiteSpace=wrap;fontSize=13;strokeColor=#3a414a;strokeOpacity=100;dashed=1;fixDash=1;dashPattern=16 6;strokeWidth=0.8;rounded=0;startArrow=none;endArrow=block;endFill=1;exitX=1.003;exitY=0.5;exitPerimeter=0;entryX=-0.002;entryY=0.5;entryPerimeter=0;lucidId=g-1Gi15g4hcb;" edge="1" parent="1" source="5-b9ar80urW7ufmgR8nd-13" target="5-b9ar80urW7ufmgR8nd-5">
          <mxGeometry width="100" height="100" relative="1" as="geometry">
            <Array as="points" />
          </mxGeometry>
        </mxCell>
        <mxCell id="5-b9ar80urW7ufmgR8nd-31" value="" style="html=1;jettySize=18;whiteSpace=wrap;fontSize=13;strokeColor=#3a414a;strokeOpacity=100;dashed=1;fixDash=1;dashPattern=16 6;strokeWidth=0.8;rounded=0;startArrow=none;endArrow=block;endFill=1;exitX=1.003;exitY=0.5;exitPerimeter=0;lucidId=l-1Gumk7pPSG;" edge="1" parent="1" source="5-b9ar80urW7ufmgR8nd-10">
          <mxGeometry width="100" height="100" relative="1" as="geometry">
            <Array as="points" />
            <mxPoint x="1071" y="177" as="targetPoint" />
          </mxGeometry>
        </mxCell>
        <mxCell id="5-b9ar80urW7ufmgR8nd-32" value="" style="html=1;jettySize=18;whiteSpace=wrap;fontSize=13;strokeColor=#3a414a;strokeOpacity=100;dashed=1;fixDash=1;dashPattern=16 6;strokeWidth=0.8;rounded=0;startArrow=none;endArrow=block;endFill=1;exitX=1.003;exitY=0.5;exitPerimeter=0;lucidId=o-1Gq~654F_8;" edge="1" parent="1" source="5-b9ar80urW7ufmgR8nd-14">
          <mxGeometry width="100" height="100" relative="1" as="geometry">
            <Array as="points" />
            <mxPoint x="1067" y="172" as="targetPoint" />
          </mxGeometry>
        </mxCell>
      </root>
    </mxGraphModel>
  </diagram>
</mxfile>
